<mxfile host="app.diagrams.net" agent="Mozilla/5.0 (Windows NT 10.0; Win64; x64) AppleWebKit/537.36 (KHTML, like Gecko) Chrome/131.0.0.0 Safari/537.36" version="24.8.6">
  <diagram name="Page-1" id="oO7ZYkbTonmiwi52hVFL">
    <mxGraphModel dx="778" dy="463" grid="1" gridSize="10" guides="1" tooltips="1" connect="1" arrows="1" fold="1" page="1" pageScale="1" pageWidth="850" pageHeight="1100" math="0" shadow="0">
      <root>
        <mxCell id="0" />
        <mxCell id="1" parent="0" />
        <mxCell id="WNLOIrQTHZi0ryj3Wxcx-1" value="&lt;font size=&quot;3&quot;&gt;Start&lt;/font&gt;" style="ellipse;whiteSpace=wrap;html=1;" parent="1" vertex="1">
          <mxGeometry x="360" y="280" width="120" height="80" as="geometry" />
        </mxCell>
        <mxCell id="WNLOIrQTHZi0ryj3Wxcx-2" value="" style="endArrow=classic;html=1;rounded=0;exitX=0.5;exitY=1;exitDx=0;exitDy=0;" parent="1" source="WNLOIrQTHZi0ryj3Wxcx-1" edge="1">
          <mxGeometry width="50" height="50" relative="1" as="geometry">
            <mxPoint x="420" y="410" as="sourcePoint" />
            <mxPoint x="420" y="400" as="targetPoint" />
          </mxGeometry>
        </mxCell>
        <mxCell id="WNLOIrQTHZi0ryj3Wxcx-4" value="" style="endArrow=classic;html=1;rounded=0;exitX=0.5;exitY=1;exitDx=0;exitDy=0;" parent="1" edge="1">
          <mxGeometry width="50" height="50" relative="1" as="geometry">
            <mxPoint x="420" y="460" as="sourcePoint" />
            <mxPoint x="420" y="520" as="targetPoint" />
          </mxGeometry>
        </mxCell>
        <mxCell id="WNLOIrQTHZi0ryj3Wxcx-6" value="N / 100 = C&lt;div&gt;N % 100 = temp&lt;/div&gt;&lt;div&gt;temp / 10 = B&lt;div&gt;temp % 10 = A&lt;/div&gt;&lt;/div&gt;&lt;div&gt;A*100 + B*10 + C = kq&lt;/div&gt;" style="rounded=0;whiteSpace=wrap;html=1;" parent="1" vertex="1">
          <mxGeometry x="315" y="650" width="210" height="80" as="geometry" />
        </mxCell>
        <mxCell id="WNLOIrQTHZi0ryj3Wxcx-8" value="100&amp;lt;= N &amp;lt;= 999" style="rhombus;whiteSpace=wrap;html=1;" parent="1" vertex="1">
          <mxGeometry x="337.5" y="520" width="165" height="80" as="geometry" />
        </mxCell>
        <mxCell id="WNLOIrQTHZi0ryj3Wxcx-10" value="" style="endArrow=classic;html=1;rounded=0;exitX=0.5;exitY=1;exitDx=0;exitDy=0;entryX=0.5;entryY=0;entryDx=0;entryDy=0;" parent="1" source="WNLOIrQTHZi0ryj3Wxcx-8" target="WNLOIrQTHZi0ryj3Wxcx-6" edge="1">
          <mxGeometry width="50" height="50" relative="1" as="geometry">
            <mxPoint x="470" y="620" as="sourcePoint" />
            <mxPoint x="520" y="570" as="targetPoint" />
          </mxGeometry>
        </mxCell>
        <mxCell id="WNLOIrQTHZi0ryj3Wxcx-12" value="Đ" style="whiteSpace=wrap;html=1;aspect=fixed;" parent="1" vertex="1">
          <mxGeometry x="425" y="600" width="30" height="30" as="geometry" />
        </mxCell>
        <mxCell id="WNLOIrQTHZi0ryj3Wxcx-13" value="" style="endArrow=classic;html=1;rounded=0;exitX=0;exitY=0.5;exitDx=0;exitDy=0;" parent="1" source="WNLOIrQTHZi0ryj3Wxcx-8" target="WNLOIrQTHZi0ryj3Wxcx-21" edge="1">
          <mxGeometry width="50" height="50" relative="1" as="geometry">
            <mxPoint x="430" y="770" as="sourcePoint" />
            <mxPoint x="360" y="1000" as="targetPoint" />
            <Array as="points">
              <mxPoint x="200" y="560" />
              <mxPoint x="200" y="1000" />
            </Array>
          </mxGeometry>
        </mxCell>
        <mxCell id="WNLOIrQTHZi0ryj3Wxcx-14" value="S" style="whiteSpace=wrap;html=1;aspect=fixed;" parent="1" vertex="1">
          <mxGeometry x="160" y="690" width="30" height="30" as="geometry" />
        </mxCell>
        <mxCell id="WNLOIrQTHZi0ryj3Wxcx-15" value="" style="endArrow=classic;html=1;rounded=0;exitX=0.5;exitY=1;exitDx=0;exitDy=0;" parent="1" source="WNLOIrQTHZi0ryj3Wxcx-6" edge="1">
          <mxGeometry width="50" height="50" relative="1" as="geometry">
            <mxPoint x="450" y="760" as="sourcePoint" />
            <mxPoint x="420" y="800" as="targetPoint" />
          </mxGeometry>
        </mxCell>
        <mxCell id="WNLOIrQTHZi0ryj3Wxcx-18" value="In kq" style="shape=parallelogram;perimeter=parallelogramPerimeter;whiteSpace=wrap;html=1;fixedSize=1;" parent="1" vertex="1">
          <mxGeometry x="350" y="800" width="160" height="80" as="geometry" />
        </mxCell>
        <mxCell id="WNLOIrQTHZi0ryj3Wxcx-19" value="Nhập N" style="shape=parallelogram;perimeter=parallelogramPerimeter;whiteSpace=wrap;html=1;fixedSize=1;rounded=0;" parent="1" vertex="1">
          <mxGeometry x="360" y="400" width="120" height="60" as="geometry" />
        </mxCell>
        <mxCell id="WNLOIrQTHZi0ryj3Wxcx-21" value="End" style="ellipse;whiteSpace=wrap;html=1;" parent="1" vertex="1">
          <mxGeometry x="360" y="960" width="120" height="80" as="geometry" />
        </mxCell>
        <mxCell id="WNLOIrQTHZi0ryj3Wxcx-22" value="" style="endArrow=classic;html=1;rounded=0;exitX=0.425;exitY=1.053;exitDx=0;exitDy=0;exitPerimeter=0;entryX=0.5;entryY=0;entryDx=0;entryDy=0;" parent="1" source="WNLOIrQTHZi0ryj3Wxcx-18" target="WNLOIrQTHZi0ryj3Wxcx-21" edge="1">
          <mxGeometry width="50" height="50" relative="1" as="geometry">
            <mxPoint x="500" y="990" as="sourcePoint" />
            <mxPoint x="550" y="940" as="targetPoint" />
          </mxGeometry>
        </mxCell>
      </root>
    </mxGraphModel>
  </diagram>
</mxfile>
